<svg width="39" height="39" viewBox="0 0 39 39" fill="none" xmlns="http://www.w3.org/2000/svg">
<path fill-rule="evenodd" clip-rule="evenodd" d="M19.5 14.625H21.8303V33.9885H19.5V14.625Z" fill="black"/>
<path fill-rule="evenodd" clip-rule="evenodd" d="M20.7456 0.0390015C14.7396 0.0390015 9.86462 4.9335 9.86462 10.9688C9.86462 17.0089 14.7396 21.8985 20.7456 21.8985C26.7541 21.8985 31.6266 17.0064 31.6266 10.9688C31.6266 4.93107 26.7565 0.0390015 20.7456 0.0390015ZM21.1332 4.00238C19.189 3.9959 17.3219 4.76184 15.9424 6.13176C14.5629 7.50168 13.7839 9.36342 13.7768 11.3076C13.7768 12.9212 12.1973 12.1509 12.1973 9.73538C12.2044 7.79123 12.9834 5.92949 14.3629 4.55957C15.7424 3.18965 17.6095 2.42371 19.5537 2.43019C21.9814 2.43019 22.7566 4.00238 21.1332 4.00238Z" fill="black"/>
<path fill-rule="evenodd" clip-rule="evenodd" d="M24.6408 27.1927V29.4499C30.6785 30.0544 33.7303 32.0385 33.7303 33.033C33.7303 34.2737 29.1307 36.6917 20.7043 36.6917C12.2729 36.6917 7.67338 34.2737 7.67338 33.033C7.67338 31.9654 10.9445 30.1543 16.8335 29.5693V27.3097C11.0347 27.8241 4.95801 29.5961 4.95801 33.0623C4.95801 36.9574 12.8774 38.9927 20.7043 38.9927C28.5262 38.9927 36.4481 36.9574 36.4481 33.0623C36.4481 29.4986 30.2081 27.6924 24.6408 27.1927Z" fill="black"/>
</svg>
