<svg width="47" height="47" viewBox="0 0 47 47" fill="none" xmlns="http://www.w3.org/2000/svg">
<path d="M23.5 18.6433C22.5394 18.6433 21.6004 18.9282 20.8017 19.4618C20.0031 19.9955 19.3806 20.754 19.013 21.6414C18.6454 22.5289 18.5492 23.5054 18.7366 24.4475C18.924 25.3896 19.3866 26.255 20.0658 26.9342C20.745 27.6134 21.6104 28.0759 22.5525 28.2633C23.4946 28.4507 24.4711 28.3546 25.3585 27.987C26.246 27.6194 27.0045 26.9969 27.5381 26.1982C28.0718 25.3995 28.3566 24.4605 28.3566 23.5C28.3566 22.8622 28.231 22.2307 27.9869 21.6414C27.7429 21.0522 27.3851 20.5168 26.9341 20.0658C26.4832 19.6148 25.9478 19.2571 25.3585 19.013C24.7693 18.7689 24.1377 18.6433 23.5 18.6433ZM42.9462 13.8454C42.9359 12.3331 42.6574 10.8346 42.1237 9.41957C41.7306 8.38412 41.1225 7.4438 40.3393 6.66064C39.5561 5.87749 38.6158 5.26931 37.5804 4.87624C36.1653 4.34252 34.6669 4.06404 33.1545 4.05374C30.6283 3.91666 29.8841 3.91666 23.5 3.91666C17.1158 3.91666 16.3716 3.91666 13.8454 4.05374C12.3331 4.06404 10.8346 4.34252 9.41954 4.87624C8.38409 5.26931 7.44377 5.87749 6.66061 6.66064C5.87746 7.4438 5.26928 8.38412 4.87621 9.41957C4.34249 10.8346 4.06401 12.3331 4.05371 13.8454C3.91663 16.3717 3.91663 17.1158 3.91663 23.5C3.91663 29.8842 3.91663 30.6283 4.05371 33.1546C4.07479 34.6722 4.35289 36.1753 4.87621 37.6C5.26754 38.6307 5.87521 39.5656 6.65829 40.3417C7.43809 41.1295 8.38043 41.7377 9.41954 42.1237C10.8346 42.6575 12.3331 42.9359 13.8454 42.9462C16.3716 43.0833 17.1158 43.0833 23.5 43.0833C29.8841 43.0833 30.6283 43.0833 33.1545 42.9462C34.6669 42.9359 36.1653 42.6575 37.5804 42.1237C38.6195 41.7377 39.5618 41.1295 40.3416 40.3417C41.1247 39.5656 41.7324 38.6307 42.1237 37.6C42.6569 36.178 42.9353 34.6732 42.9462 33.1546C43.0833 30.6283 43.0833 29.8842 43.0833 23.5C43.0833 17.1158 43.0833 16.3717 42.9462 13.8454ZM37.972 29.5121C37.9092 30.7206 37.6513 31.9109 37.2083 33.0371C36.8281 33.9765 36.2629 34.8298 35.5464 35.5464C34.8298 36.263 33.9764 36.8281 33.037 37.2083C31.9003 37.6266 30.7032 37.8581 29.4925 37.8937H17.5075C16.2967 37.8581 15.0997 37.6266 13.9629 37.2083C12.9917 36.8474 12.1148 36.2717 11.3975 35.5242C10.6879 34.8216 10.1399 33.9729 9.79163 33.0371C9.37168 31.9015 9.14656 30.7031 9.12579 29.4925V23.5V17.5075C9.14656 16.2969 9.37168 15.0985 9.79163 13.9629C10.1525 12.9918 10.7282 12.1148 11.4758 11.3975C12.1814 10.6918 13.0293 10.1443 13.9629 9.79166C15.0997 9.37337 16.2967 9.1419 17.5075 9.10624H29.4925C30.7032 9.1419 31.9003 9.37337 33.037 9.79166C34.0082 10.1525 34.8852 10.7283 35.6025 11.4758C36.312 12.1784 36.86 13.0271 37.2083 13.9629C37.6266 15.0997 37.8581 16.2967 37.8937 17.5075V23.5C37.8937 27.5342 38.0308 27.9454 37.972 29.4925V29.5121ZM34.8387 14.9421C34.6055 14.3095 34.2379 13.735 33.7612 13.2583C33.2845 12.7816 32.71 12.414 32.0775 12.1808C31.2089 11.8797 30.2941 11.7339 29.375 11.75H17.625C16.7011 11.759 15.7862 11.9314 14.9225 12.2592C14.2996 12.4817 13.7312 12.8343 13.2551 13.2936C12.779 13.7528 12.4061 14.308 12.1612 14.9225C11.8768 15.7947 11.7379 16.7077 11.75 17.625V29.375C11.7694 30.2978 11.9414 31.2109 12.2591 32.0775C12.4923 32.7101 12.8599 33.2845 13.3366 33.7612C13.8133 34.238 14.3878 34.6056 15.0204 34.8387C15.8559 35.146 16.7352 35.3179 17.625 35.3479H29.375C30.2988 35.3389 31.2137 35.1665 32.0775 34.8387C32.71 34.6056 33.2845 34.238 33.7612 33.7612C34.2379 33.2845 34.6055 32.7101 34.8387 32.0775C35.1665 31.2137 35.3388 30.2988 35.3479 29.375V23.5V17.625C35.3484 16.7003 35.1757 15.7836 34.8387 14.9225V14.9421ZM23.5 30.9808C22.5185 30.9808 21.5467 30.7872 20.6401 30.411C19.7336 30.0348 18.9102 29.4835 18.2171 28.7886C17.524 28.0936 16.9748 27.2688 16.601 26.3613C16.2272 25.4538 16.0361 24.4815 16.0387 23.5C16.0387 22.0196 16.478 20.5725 17.3008 19.3418C18.1237 18.1112 19.2932 17.1524 20.6613 16.5867C22.0294 16.0211 23.5345 15.8741 24.9862 16.1644C26.4379 16.4546 27.7708 17.169 28.8162 18.2172C29.8616 19.2654 30.5726 20.6002 30.859 22.0526C31.1454 23.505 30.9945 25.0098 30.4253 26.3764C29.8561 27.743 28.8942 28.91 27.6614 29.7296C26.4286 30.5493 24.9804 30.9847 23.5 30.9808ZM31.3333 17.4879C30.9004 17.4421 30.4998 17.2377 30.2086 16.9141C29.9174 16.5904 29.7563 16.1705 29.7563 15.7352C29.7563 15.2999 29.9174 14.88 30.2086 14.5563C30.4998 14.2327 30.9004 14.0283 31.3333 13.9825C31.7662 14.0283 32.1668 14.2327 32.458 14.5563C32.7492 14.88 32.9103 15.2999 32.9103 15.7352C32.9103 16.1705 32.7492 16.5904 32.458 16.9141C32.1668 17.2377 31.7662 17.4421 31.3333 17.4879Z" fill="black"/>
</svg>
