<svg width="71" height="71" viewBox="0 0 71 71" fill="none" xmlns="http://www.w3.org/2000/svg">
<path d="M9.65723 25.9205H60.4444V48.402H9.65723V25.9205Z" fill="#2F2F2F"/>
<path d="M9.65695 36.3875C15.0707 38.7505 20.5621 41.18 25.9148 43.7205C29.243 45.3013 32.3437 46.0723 35.3945 46.0723C37.6188 46.0723 39.8375 45.6508 41.9952 44.8132C43.6926 44.1587 45.3289 43.3655 46.9153 42.6C47.9526 42.1008 48.9288 41.6237 49.9328 41.1855C51.0477 40.6919 52.1627 40.1926 53.2776 39.699C55.2079 38.8281 57.1327 37.9517 59.063 37.0697C59.5234 36.859 59.9838 36.6537 60.4497 36.4429V45.1127C60.4497 47.0486 60.4941 48.99 60.4497 50.9258C60.2999 57.3491 52.7284 58.4308 46.2941 59.0853C36.587 60.0726 24.7001 60.6218 15.4257 57.7651C12.9296 56.9941 11.4153 55.6296 10.5167 53.9489C8.43664 50.0605 9.6625 44.4748 9.6625 40.6697C9.65696 39.2441 9.65695 37.8186 9.65695 36.3875Z" fill="#006CA2"/>
<path d="M0.327162 26.1147C0.454741 25.8096 0.626694 25.5156 0.782006 25.2826C1.4088 24.3619 2.34623 23.6352 3.29474 23.0694C3.72185 22.8143 4.16005 22.5369 4.60935 22.3373C7.20529 21.178 9.84005 19.8744 12.4304 18.6208C18.4543 15.7254 24.4394 12.7301 30.7573 10.5391C32.0386 10.0953 33.2922 9.90671 34.5292 9.90671C37.7797 9.90671 40.9081 11.2158 44.0143 12.6247C49.184 14.971 54.3593 17.3118 59.5234 19.6526C62.2136 20.8729 65.0481 21.9268 67.6607 23.3357C69.0751 24.1012 71.2162 25.3825 70.8612 27.4848C70.6227 28.9325 69.0696 29.5426 67.8826 30.0751C66.0909 30.8739 64.2937 31.6616 62.5076 32.4658C61.8198 32.7765 61.132 33.0871 60.4442 33.4033C57.6763 34.6624 54.914 35.9271 52.1405 37.1696C51.0311 37.6688 49.9218 38.1625 48.8124 38.6506C46.2054 39.7988 43.6483 41.2077 40.9968 42.2394C39.0998 42.9716 37.2361 43.3044 35.3945 43.3044C32.6044 43.3044 29.8587 42.5334 27.1019 41.2188C21.3332 38.4787 15.509 35.9105 9.65701 33.37C8.1538 32.7099 6.64505 32.0609 5.14185 31.4119C3.11724 30.5355 -0.882056 29.0712 0.327162 26.1147Z" fill="#006CA2"/>
<path d="M69.7574 58.1368C69.7574 58.1368 69.7131 59.4569 69.9571 61.1709C69.9571 61.1709 65.6639 61.9974 62.4966 59.3072C62.4966 59.3072 62.5354 58.098 62.7185 57.5876L69.7574 58.1368Z" fill="#ED6C30"/>
<path d="M69.752 57.277C69.7409 56.9054 69.7077 56.5227 69.6577 56.151C69.5246 55.1914 69.1862 54.3705 68.504 53.6771C68.3043 53.4774 68.088 53.3554 67.8716 53.2667V45.7007V30.5189H65.0039V33.3756C64.9928 33.6751 64.9984 33.9635 65.0039 34.2353V36.9311H65.0205C65.0205 37.2195 65.0205 37.508 65.0261 37.7964C65.0483 40.2426 65.0039 42.6832 64.9762 45.1294C64.9651 45.6286 64.9595 46.1334 64.9595 46.6381V53.2112C64.5213 53.372 64.1441 53.6605 63.8391 54.1486C63.4785 54.7366 63.2622 55.4077 63.0736 56.0678C62.9793 56.3951 62.713 57.5821 62.713 57.5821C62.713 57.5821 62.6631 58.0314 63.118 58.2422C63.767 58.5417 65.2812 59.0299 67.9493 58.7636C68.2987 58.7303 68.6482 58.6582 68.981 58.5528C69.2362 58.4752 69.6355 58.392 69.7576 58.1313C69.8408 57.9593 69.7576 57.4435 69.752 57.277Z" fill="#F79329"/>
<path d="M61.2152 64.2162C61.6091 63.4008 61.8809 62.5299 62.0861 61.6535C62.1915 61.2153 62.4966 59.3072 62.4966 59.3072C62.4966 59.3072 63.434 60.1337 66.1741 60.3001C68.4262 60.4388 69.824 60.0005 69.824 60.0005C69.824 60.0005 70.2344 61.7423 70.2566 63.9666C70.2733 65.3256 70.0791 66.6346 69.5633 67.8882C69.4024 68.282 69.2194 68.6981 68.8976 68.9865C68.6536 69.2139 68.1044 69.3249 67.8049 69.1252C67.5997 68.9809 67.694 68.8312 67.6551 68.6315C67.5719 68.1434 67.2003 68.6426 67.0616 68.8256C66.8231 69.1474 66.7677 69.4081 66.3516 69.5356C65.747 69.7131 64.7098 69.8906 64.3381 69.2139C64.205 68.9754 64.4047 68.7924 64.0608 68.7868C63.8944 68.7868 63.678 69.0808 63.5671 69.1862C63.3397 69.4025 63.0901 69.4635 62.7794 69.4302C62.2747 69.3914 61.5425 69.1307 61.426 68.5649C61.3761 68.3708 61.6923 67.9492 61.2818 67.9714C60.8935 67.9881 60.6883 68.4651 60.2168 68.4263C59.8119 68.3985 59.5068 68.1045 59.3792 67.7273C59.1573 67.0506 59.712 66.2907 60.1336 65.8081C60.5718 65.3034 60.9268 64.8152 61.2152 64.2162Z" fill="#F79329"/>
<path d="M66.6347 31.7226C66.5459 31.7226 66.4572 31.7115 66.3684 31.6948L34.9287 24.8555C34.252 24.7058 33.8193 24.0401 33.9691 23.3579C34.1189 22.6812 34.7845 22.2485 35.4668 22.3983L66.9065 29.2376C67.5832 29.3873 68.0158 30.053 67.8661 30.7352C67.8028 31.0148 67.6466 31.2647 67.4229 31.4441C67.1992 31.6234 66.9213 31.7216 66.6347 31.7226Z" fill="#F79329"/>
</svg>
