<svg width="49" height="49" viewBox="0 0 49 49" fill="none" xmlns="http://www.w3.org/2000/svg">
<path d="M42.1126 9.89261H6.88745C6.55532 9.893 6.23691 10.0251 6.0021 10.26C5.76729 10.4949 5.63527 10.8134 5.63501 11.1455V13.6661C5.63501 13.7822 5.76094 13.9155 5.86384 13.9694L24.379 24.5451C24.4264 24.5722 24.4802 24.5862 24.5348 24.5857C24.5906 24.5859 24.6455 24.571 24.6936 24.5426L42.6491 13.9797C42.7501 13.9233 43.0176 13.7744 43.118 13.7058C43.2396 13.623 43.365 13.548 43.365 13.3995V11.145C43.3646 10.813 43.2325 10.4947 42.9977 10.2599C42.763 10.0251 42.4446 9.893 42.1126 9.89261Z" fill="black"/>
<path d="M43.2087 17.4665C43.1605 17.4391 43.1059 17.4248 43.0504 17.4251C42.9949 17.4254 42.9405 17.4404 42.8927 17.4685L32.7315 23.447C32.691 23.4706 32.6564 23.503 32.6301 23.5418C32.6039 23.5806 32.5867 23.6249 32.5799 23.6712C32.573 23.7176 32.5767 23.7649 32.5907 23.8096C32.6047 23.8544 32.6285 23.8954 32.6605 23.9296L42.8231 34.8846C42.8522 34.9162 42.8876 34.9414 42.927 34.9586C42.9664 34.9758 43.0089 34.9847 43.0519 34.9845C43.1349 34.9844 43.2145 34.9514 43.2732 34.8927C43.3319 34.834 43.3649 34.7544 43.365 34.6714V17.7385C43.3652 17.6834 43.3509 17.6292 43.3234 17.5815C43.296 17.5337 43.2564 17.4941 43.2087 17.4665Z" fill="black"/>
<path d="M29.8032 25.4545C29.7549 25.402 29.6901 25.3676 29.6196 25.3571C29.5491 25.3465 29.4771 25.3605 29.4156 25.3967L25.3427 27.7933C25.1041 27.9312 24.8337 28.0046 24.5581 28.0064C24.2825 28.0082 24.0112 27.9383 23.7708 27.8036L20.1864 25.7559C20.1286 25.7229 20.0617 25.7092 19.9956 25.7168C19.9294 25.7244 19.8674 25.7528 19.8184 25.798L6.20723 38.4234C6.17154 38.4567 6.14415 38.4979 6.12722 38.5438C6.11029 38.5896 6.1043 38.6387 6.10973 38.6873C6.11515 38.7358 6.13185 38.7824 6.15847 38.8234C6.1851 38.8643 6.22092 38.8985 6.26309 38.9232C6.47477 39.0476 6.6791 39.1069 6.88686 39.1069H41.7518C41.8128 39.107 41.8725 39.0892 41.9235 39.0557C41.9745 39.0221 42.0145 38.9743 42.0385 38.9183C42.0629 38.8625 42.0705 38.8008 42.0602 38.7408C42.0499 38.6808 42.0223 38.6251 41.9807 38.5806L29.8032 25.4545Z" fill="black"/>
<path d="M16.8237 24.3045C16.8597 24.2712 16.8874 24.2298 16.9046 24.1838C16.9217 24.1378 16.9278 24.0884 16.9223 24.0396C16.9168 23.9908 16.8999 23.944 16.873 23.9029C16.8461 23.8619 16.8099 23.8277 16.7673 23.8032L6.10198 17.7115C6.05439 17.6845 6.00053 17.6705 5.9458 17.6708C5.89106 17.6711 5.83737 17.6858 5.7901 17.7134C5.74282 17.741 5.70361 17.7805 5.6764 17.828C5.64918 17.8754 5.63491 17.9292 5.63501 17.984V33.9678C5.63467 34.0288 5.65223 34.0886 5.68553 34.1398C5.71883 34.191 5.7664 34.2312 5.82235 34.2556C5.87831 34.28 5.94019 34.2875 6.00035 34.2771C6.0605 34.2667 6.11628 34.2389 6.16078 34.1971L16.8237 24.3045Z" fill="black"/>
</svg>
