<svg width="33" height="30" viewBox="0 0 33 30" fill="none" xmlns="http://www.w3.org/2000/svg">
<path d="M18.0278 9C19.3318 9 20.5824 9.47411 21.5044 10.318C22.4265 11.1619 22.9445 12.3065 22.9445 13.5C22.9445 13.8978 23.1171 14.2794 23.4245 14.5607C23.7318 14.842 24.1487 15 24.5834 15C25.018 15 25.4349 14.842 25.7422 14.5607C26.0496 14.2794 26.2222 13.8978 26.2222 13.5C26.2222 11.5109 25.3589 9.60322 23.8222 8.1967C22.2854 6.79018 20.2011 6 18.0278 6C17.5931 6 17.1763 6.15804 16.8689 6.43934C16.5616 6.72064 16.3889 7.10218 16.3889 7.5C16.3889 7.89782 16.5616 8.27936 16.8689 8.56066C17.1763 8.84196 17.5931 9 18.0278 9Z" fill="black"/>
<path d="M18.0278 3C21.0704 3 23.9884 4.10625 26.1399 6.07538C28.2913 8.04451 29.5 10.7152 29.5 13.5C29.5 13.8978 29.6727 14.2794 29.98 14.5607C30.2874 14.842 30.7042 15 31.1389 15C31.5735 15 31.9904 14.842 32.2978 14.5607C32.6051 14.2794 32.7778 13.8978 32.7778 13.5C32.7778 9.91958 31.2238 6.4858 28.4576 3.95406C25.6914 1.42232 21.9397 0 18.0278 0C17.5931 0 17.1763 0.158035 16.8689 0.43934C16.5616 0.720644 16.3889 1.10218 16.3889 1.5C16.3889 1.89782 16.5616 2.27936 16.8689 2.56066C17.1763 2.84196 17.5931 3 18.0278 3ZM32.3681 20.865C32.2779 20.6242 32.1223 20.4084 31.9159 20.2378C31.7094 20.0672 31.459 19.9475 31.1881 19.89L21.3547 17.835C21.0878 17.7796 20.81 17.7863 20.5466 17.8544C20.2832 17.9225 20.0427 18.0499 19.8469 18.225C19.6175 18.42 19.6011 18.435 18.5358 20.295C15.0011 18.8042 12.1687 16.2013 10.5544 12.96C12.6358 12 12.6522 12 12.8653 11.775C13.0566 11.5958 13.1958 11.3757 13.2702 11.1346C13.3446 10.8936 13.3519 10.6393 13.2914 10.395L11.0461 1.5C10.9833 1.25204 10.8525 1.02281 10.6661 0.833867C10.4798 0.644928 10.2439 0.502503 9.98083 0.42C9.5981 0.294884 9.20287 0.204451 8.80083 0.15C8.38661 0.0620928 7.96391 0.011849 7.53889 0C5.53945 0 3.62191 0.726962 2.20809 2.02096C0.794274 3.31496 0 5.07001 0 6.9C0.00867287 13.0241 2.67055 18.895 7.40188 23.2254C12.1332 27.5558 18.5478 29.9921 25.2389 30C26.2289 30 27.2092 29.8215 28.1239 29.4748C29.0386 29.128 29.8696 28.6198 30.5697 27.979C31.2697 27.3383 31.825 26.5777 32.2039 25.7405C32.5828 24.9034 32.7778 24.0061 32.7778 23.1C32.7783 22.7182 32.7454 22.337 32.6794 21.96C32.6106 21.5874 32.5064 21.221 32.3681 20.865Z" fill="black"/>
</svg>
