<svg width="43" height="44" viewBox="0 0 43 44" fill="none" xmlns="http://www.w3.org/2000/svg">
<rect width="43" height="44" fill="white"/>
<path d="M35.8333 13.8073C34.7882 14.2847 33.6591 14.6094 32.446 14.7812C33.7151 14.0174 34.5829 12.9002 35.0495 11.4297C33.8364 12.1554 32.5859 12.6424 31.2982 12.8906C30.1597 11.6302 28.732 11 27.015 11C25.3913 11 24.0055 11.5872 22.8577 12.7617C21.71 13.9362 21.1361 15.3542 21.1361 17.0156C21.1361 17.5694 21.1827 18.0278 21.276 18.3906C18.8685 18.2569 16.6102 17.6363 14.5013 16.5286C12.3924 15.421 10.6007 13.941 9.1263 12.0885C8.58507 13.0434 8.31445 14.0556 8.31445 15.125C8.31445 17.3021 9.16363 18.9731 10.862 20.138C9.98481 20.1189 9.05165 19.8707 8.0625 19.3932V19.4505C8.0625 20.8828 8.52908 22.1576 9.46224 23.2747C10.3954 24.3919 11.5432 25.0842 12.9056 25.3516C12.3644 25.5043 11.8885 25.5807 11.4779 25.5807C11.2352 25.5807 10.8713 25.5425 10.3861 25.4661C10.778 26.6693 11.4732 27.6623 12.4717 28.4453C13.4702 29.2283 14.6039 29.6293 15.873 29.6484C13.7081 31.3672 11.2726 32.2266 8.56641 32.2266C8.08116 32.2266 7.61458 32.1979 7.16667 32.1406C9.92882 33.9358 12.9336 34.8333 16.181 34.8333C18.2713 34.8333 20.2309 34.4944 22.0599 33.8164C23.8889 33.1385 25.4566 32.2313 26.763 31.0951C28.0694 29.9588 29.1939 28.6506 30.1364 27.1706C31.0789 25.6905 31.7788 24.1437 32.236 22.5299C32.6932 20.9162 32.9219 19.3073 32.9219 17.7031C32.9219 17.3594 32.9125 17.1016 32.8939 16.9297C34.0697 16.0703 35.0495 15.0295 35.8333 13.8073ZM43 8.25V35.75C43 38.0226 42.2115 39.9657 40.6344 41.5794C39.0574 43.1931 37.1584 44 34.9375 44H8.0625C5.84158 44 3.9426 43.1931 2.36556 41.5794C0.78852 39.9657 0 38.0226 0 35.75V8.25C0 5.97743 0.78852 4.03429 2.36556 2.42057C3.9426 0.806858 5.84158 0 8.0625 0H34.9375C37.1584 0 39.0574 0.806858 40.6344 2.42057C42.2115 4.03429 43 5.97743 43 8.25Z" fill="black"/>
</svg>
